<svg width="32" height="32" viewBox="0 0 32 32" fill="none" xmlns="http://www.w3.org/2000/svg">
<mask id="mask0_36_136" style="mask-type:alpha" maskUnits="userSpaceOnUse" x="0" y="0" width="32" height="32">
<rect width="32" height="32" fill="#D9D9D9"/>
</mask>
<g mask="url(#mask0_36_136)">
<path d="M16.5416 29.0834C23.8364 29.0834 29.7499 23.1698 29.7499 15.875C29.7499 8.58026 23.8364 2.66669 16.5416 2.66669C9.24683 2.66669 3.33325 8.58026 3.33325 15.875C3.33325 23.1698 9.24683 29.0834 16.5416 29.0834Z" fill="white"/>
<path d="M27.1409 23.7468C25.9091 22.0976 24.3095 20.7584 22.4694 19.8357C20.6293 18.913 18.5993 18.4322 16.5408 18.4316C14.4823 18.4309 12.452 18.9104 10.6113 19.832C8.77055 20.7535 7.17015 22.0917 5.93726 23.7401C7.16388 25.397 8.76167 26.7433 10.6025 27.6712C12.4433 28.5992 14.476 29.0828 16.5374 29.0835C18.5989 29.0841 20.6318 28.6017 22.4732 27.675C24.3147 26.7482 25.9133 25.4028 27.1409 23.7468Z" fill="#A3BEAC"/>
<path d="M16.5414 16.7273C19.3652 16.7273 21.6543 14.4381 21.6543 11.6144C21.6543 8.79059 19.3652 6.50146 16.5414 6.50146C13.7176 6.50146 11.4285 8.79059 11.4285 11.6144C11.4285 14.4381 13.7176 16.7273 16.5414 16.7273Z" fill="#A3BEAC"/>
</g>
</svg>
