<svg width="24" height="24" viewBox="0 0 24 24" fill="none" xmlns="http://www.w3.org/2000/svg">
<g clip-path="url(#clip0_142_223)">
<path d="M23.9999 6.99999C23.9986 6.75529 23.9378 6.51458 23.8229 6.29857C23.7079 6.08256 23.5421 5.89773 23.3399 5.75999L16.3399 0.999991C16.0939 0.831883 15.8028 0.741946 15.5049 0.741946C15.2069 0.741946 14.9159 0.831883 14.6699 0.999991L8.81988 5.30999C8.73271 5.3734 8.62768 5.40756 8.51989 5.40756C8.41209 5.40756 8.30706 5.3734 8.21988 5.30999L2.38988 0.999991C2.16359 0.833012 1.89492 0.733013 1.61452 0.711405C1.33412 0.689797 1.05329 0.747452 0.804089 0.877788C0.554885 1.00813 0.347341 1.20589 0.205142 1.44853C0.062944 1.69116 -0.00818086 1.96888 -0.000115226 2.24999V17C0.0011898 17.2447 0.0619435 17.4854 0.176916 17.7014C0.291888 17.9174 0.457634 18.1022 0.659885 18.24L7.65988 23C7.9059 23.1681 8.19692 23.258 8.49488 23.258C8.79285 23.258 9.08387 23.1681 9.32988 23L15.1599 18.71C15.2471 18.6466 15.3521 18.6124 15.4599 18.6124C15.5677 18.6124 15.6727 18.6466 15.7599 18.71L21.6099 23C21.8696 23.1861 22.1804 23.2874 22.4999 23.29C22.6972 23.2913 22.8929 23.2534 23.0755 23.1785C23.2581 23.1036 23.424 22.9932 23.5635 22.8536C23.7031 22.7141 23.8135 22.5482 23.8884 22.3656C23.9633 22.183 24.0012 21.9873 23.9999 21.79V6.99999ZM9.49988 7.52999C9.49825 7.45209 9.51561 7.37497 9.55045 7.30528C9.5853 7.23559 9.63659 7.17542 9.69988 7.12999L14.0999 3.83999C14.1391 3.81614 14.184 3.80353 14.2299 3.80353C14.2757 3.80353 14.3207 3.81614 14.3599 3.83999C14.3935 3.85473 14.4235 3.87671 14.4477 3.90437C14.4719 3.93202 14.4897 3.96467 14.4999 3.99999V16.47C14.5015 16.5479 14.4842 16.625 14.4493 16.6947C14.4145 16.7644 14.3632 16.8246 14.2999 16.87L9.89988 20.16C9.86071 20.1838 9.81574 20.1964 9.76989 20.1964C9.72403 20.1964 9.67905 20.1838 9.63988 20.16C9.60622 20.1452 9.57623 20.1233 9.55203 20.0956C9.52783 20.068 9.51003 20.0353 9.49988 20V7.52999ZM1.99988 3.72999C1.99884 3.68229 2.01147 3.63529 2.03628 3.59453C2.06108 3.55378 2.09703 3.52097 2.13988 3.49999C2.17905 3.47615 2.22403 3.46353 2.26988 3.46353C2.31574 3.46353 2.36072 3.47615 2.39988 3.49999L7.29988 7.10999C7.36142 7.15709 7.41141 7.21759 7.44607 7.2869C7.48072 7.35621 7.49913 7.4325 7.49988 7.50999V20C7.50001 20.045 7.488 20.0891 7.46512 20.1279C7.44224 20.1666 7.40934 20.1984 7.36988 20.22C7.33005 20.2419 7.28533 20.2533 7.23988 20.2533C7.19443 20.2533 7.14972 20.2419 7.10988 20.22L2.21988 16.87C2.15211 16.8252 2.09652 16.7643 2.05812 16.6928C2.01971 16.6212 1.9997 16.5412 1.99988 16.46V3.72999ZM21.9999 20.27C22.0009 20.3177 21.9883 20.3647 21.9635 20.4054C21.9387 20.4462 21.9027 20.479 21.8599 20.5C21.8207 20.5238 21.7757 20.5364 21.7299 20.5364C21.684 20.5364 21.6391 20.5238 21.5999 20.5L16.6999 16.92C16.6384 16.8729 16.5884 16.8124 16.5537 16.7431C16.519 16.6738 16.5006 16.5975 16.4999 16.52V3.99999C16.4998 3.95502 16.5118 3.91084 16.5347 3.87213C16.5575 3.83341 16.5904 3.80158 16.6299 3.77999C16.6697 3.75811 16.7144 3.74663 16.7599 3.74663C16.8053 3.74663 16.85 3.75811 16.8899 3.77999L21.7799 7.10999C21.8477 7.15474 21.9033 7.21564 21.9417 7.28721C21.9801 7.35878 22.0001 7.43877 21.9999 7.51999V20.27Z" fill="white"/>
</g>
<defs>
<clipPath id="clip0_142_223">
<rect width="24" height="24" fill="white"/>
</clipPath>
</defs>
</svg>
