<svg width="24" height="24" viewBox="0 0 24 24" fill="none" xmlns="http://www.w3.org/2000/svg">
<path d="M12 22C17.523 22 22 17.523 22 12C22 6.477 17.523 2 12 2C6.477 2 2 6.477 2 12C2 17.523 6.477 22 12 22Z" stroke="white" stroke-width="2"/>
<path d="M2 10.42C3.50767 9.70833 4.62267 9.60917 5.345 10.1225C6.4285 10.8925 6.564 14.032 9.029 12.532C11.494 11.032 7.9735 10.42 8.7375 8.247C9.5015 6.0735 12.004 7.762 12.2525 5.3815C12.4188 3.7945 10.5205 3.18717 6.5575 3.5595" stroke="white" stroke-width="2"/>
<path d="M18 4C15.143 6.49433 14.1452 8.0005 15.0065 8.5185C16.2985 9.296 16.8465 8.2015 18.4235 8.5185C20.0005 8.8355 19.6585 10.973 18.8295 10.973C18.0005 10.973 13.705 10.426 13.9215 12.9325C14.138 15.439 16.7215 15.81 16.7215 17.2105C16.7215 18.1438 16.1498 19.5727 15.0065 21.497M3.052 16.463C3.39283 16.313 3.73552 16.1674 4.08 16.026C6.00334 15.2493 7.43067 15.0662 8.362 15.4765C10.008 16.203 9.375 17.67 9.891 18.2105C10.406 18.751 11.694 18.594 11.694 19.622C11.694 20.3077 11.4637 21.082 11.003 21.945" stroke="white" stroke-width="2" stroke-linecap="round"/>
</svg>
